<svg width="9" height="13" viewBox="0 0 9 13" fill="none" xmlns="http://www.w3.org/2000/svg">
<path fill-rule="evenodd" clip-rule="evenodd" d="M8.96006 4.8907C8.88597 4.71654 8.72103 4.60438 8.53906 4.60438C8.01228 4.60438 5.07125 4.60438 5.07125 4.60438L6.49767 0.653916C6.55125 0.505537 6.53187 0.339024 6.4458 0.208449C6.35977 0.0779203 6.21803 0 6.06661 0H2.6358C2.44418 0 2.27253 0.124247 2.2047 0.312059L0.0298315 6.33525C-0.0237517 6.48363 -0.0043734 6.65014 0.0817022 6.78072C0.167778 6.91124 0.30951 6.98921 0.46093 6.98921L4.3095 6.96499L2.27609 12.6321C2.24923 12.707 2.27703 12.7914 2.34229 12.8329C2.40755 12.8745 2.49182 12.8615 2.54288 12.802L8.88192 5.41026C9.0035 5.2684 9.03415 5.06486 8.96006 4.8907Z" fill="white"/>
</svg>
