<svg width="20" height="20" viewBox="0 0 20 20" fill="none" xmlns="http://www.w3.org/2000/svg">
<path d="M10 19C14.9706 19 19 14.9706 19 10C19 5.02944 14.9706 1 10 1C5.02944 1 1 5.02944 1 10C1 14.9706 5.02944 19 10 19Z" fill="white" stroke="#00CC4F" stroke-width="2"/>
<path d="M11.1152 10.8174H9.94336L9.77734 5.89062H11.2812L11.1152 10.8174ZM10.5293 11.5889C10.7669 11.5889 10.9574 11.6589 11.1006 11.7988C11.2471 11.9388 11.3203 12.1178 11.3203 12.3359C11.3203 12.5508 11.2471 12.7282 11.1006 12.8682C10.9574 13.0081 10.7669 13.0781 10.5293 13.0781C10.2949 13.0781 10.1045 13.0081 9.95801 12.8682C9.81478 12.7282 9.74316 12.5508 9.74316 12.3359C9.74316 12.1211 9.81478 11.9437 9.95801 11.8037C10.1045 11.6605 10.2949 11.5889 10.5293 11.5889Z" fill="#0D9F45"/>
</svg>
