<svg width="9" height="10" viewBox="0 0 9 10" fill="none" xmlns="http://www.w3.org/2000/svg">
<path fill-rule="evenodd" clip-rule="evenodd" d="M4.935 0.329288L5.95009 2.48003C6.02068 2.62961 6.15716 2.73326 6.31505 2.75721L8.58496 3.10212C8.98258 3.16258 9.14122 3.67337 8.85361 3.96646L7.21111 5.64057C7.09696 5.75698 7.04477 5.92482 7.07181 6.08913L7.45948 8.45305C7.52744 8.86706 7.1118 9.18273 6.75622 8.9874L4.72605 7.8714C4.58488 7.79386 4.4161 7.79386 4.27492 7.8714L2.24475 8.9874C1.88918 9.18292 1.47353 8.86706 1.54149 8.45305L1.92917 6.08913C1.9562 5.92482 1.90401 5.75698 1.78987 5.64057L0.147371 3.96646C-0.14024 3.67318 0.0183965 3.16239 0.41602 3.10212L2.68593 2.75721C2.84382 2.73326 2.9803 2.62961 3.05089 2.48003L4.06597 0.329288C4.24357 -0.0474253 4.75722 -0.0474253 4.935 0.329288Z" fill="white"/>
</svg>
